<svg id="Capa_1" enable-background="new 0 0 512 512" height="512" viewBox="0 0 512 512" width="512" xmlns="http://www.w3.org/2000/svg"><g><g><g><g><g><g><g><g><g><g><g><g><circle cx="256" cy="256" fill="#ffe670" r="256"/></g></g></g></g></g></g></g></g></g></g></g><path d="m512 256c0-7.504-.342-14.927-.975-22.268l-108.881-108.88.567 13.344-23.063-23.064-14.252.058 37.951 37.951.514 12.083-28.326-28.326-20.315 3.744-39.37-39.37-28.495 31.41-11.34 27.148 2.749 27.148 14.777 25.625 16.146 12.005h-1.025l1.181 2.287-17.9-4.44-65.324-65.324-42.817 116.65-81.84 11.901 36.557 36.557-36.534 89.699 92.634 92.634c19.667 4.842 40.22 7.428 61.381 7.428 141.385 0 256-114.615 256-256z" fill="#fcd32b"/><circle cx="343.59" cy="169.9" fill="#ff9e22" r="73.982"/><path d="m343.758 175.08v2.133l-.336-2.133h-10.501v156.294h21.337v-156.294z" fill="#00347b"/><ellipse cx="343.422" cy="169.9" fill="#002659" rx="24.773" ry="24.773" transform="matrix(.924 -.383 .383 .924 -38.876 144.355)"/><g><path d="m260.469 322.241-7.379 46.244 7.379 43.455h158.515v-89.699z" fill="#002659"/><g><path d="m101.984 322.241h158.484v89.699h-158.484z" fill="#00347b"/><circle cx="143.683" cy="368.485" fill="#5ecdf3" r="15.01"/></g></g><path d="m332.921 342.186h68.288v15h-68.288z" fill="#ff6c52"/><path d="m332.921 373.842h68.288v15h-68.288z" fill="#ff6c52"/><g><circle cx="158.693" cy="215.981" fill="#ff6c52" r="89.872"/><g><g fill="#5ecdf3"><path d="m98.327 211.121c0-33.339 27.027-60.366 60.366-60.366l29.115 54.717-29.115 52.109-60.366-24.025z"/><path d="m116.387 196.596v84.612h12.088v-17.498h12.087v17.498h12.088v-17.498h6.043l15.839-31.738-15.839-35.376z"/><path d="m158.693 150.754c33.339 0 60.366 27.027 60.366 60.366v22.435l-60.366 24.025z"/><path d="m176.825 281.208v-17.498h12.087v17.498h12.088v-84.612h-42.307v67.114h6.044v17.498z"/></g><g fill="#00347b"><path d="m113.057 182.963v19.9c0 10.991 8.909 19.9 19.9 19.9s19.9-8.909 19.9-19.9z"/><path d="m164.53 202.864c0 10.991 8.91 19.9 19.9 19.9s19.9-8.909 19.9-19.9v-19.9z"/><path d="m147.04 246.07h23.307l-11.654-23.306z"/></g></g></g><path d="m260.817 315.716-60.064-32.961 27.104-27.104z" fill="#ff6c52"/><path d="m370.002 217.876c16.9-9.324 28.351-27.31 28.351-47.976s-11.451-38.652-28.351-47.976m-52.824 0c-16.9 9.324-28.351 27.31-28.351 47.976s11.451 38.652 28.351 47.976" fill="none" stroke="#fd5" stroke-miterlimit="10" stroke-width="15"/></g></svg>