<svg id="Capa_1" enable-background="new 0 0 512 512" height="512" viewBox="0 0 512 512" width="512" xmlns="http://www.w3.org/2000/svg"><g><g><g><g><g><g><g><g><g><g><g><circle cx="256" cy="256" fill="#ff6c52" r="256"/></g></g></g></g></g></g></g></g></g></g><path d="m510.164 286.671-79.639-79.639-9.955 14.943-146.673-146.673-33.173 15.927 15.159 17.884-10 48.607 45.684 45.684-10.341 38.501-50.518-50.518-17.265-5.512 7.95 34.83-139.918 165.492 119.954 119.954c17.587 3.819 35.84 5.849 54.571 5.849 131.004 0 239.007-98.406 254.164-225.329z" fill="#ff432e"/><g><g><path d="m255.883 87.7 7-9.995-7-10.005c-13.882 0-25.176 11.294-25.176 25.176 0 10.33 6.256 19.222 15.176 23.099v41.746h10l7-34.189-7-25.48c-2.854 0-5.176-2.322-5.176-5.176s2.322-5.176 5.176-5.176z" fill="#00347b"/><path d="m265.883 138.654v-22.68c8.92-3.877 15.176-12.769 15.176-23.099 0-13.882-11.294-25.176-25.176-25.176v20c2.854 0 5.176 2.322 5.176 5.176s-2.322 5.176-5.176 5.176v59.669c18.564 0 33.667 15.103 33.667 33.667s-15.103 33.667-33.667 33.667v20c29.592 0 53.667-24.075 53.667-53.667 0-26.175-18.838-48.034-43.667-52.733z" fill="#002659"/><g><path d="m256 386.197h-174.525v-179.165h174.525l33.82 89.582z" fill="#fff"/><path d="m256 207.032h174.525v179.165h-174.525z" fill="#e2e1f4"/><path d="m148.067 356.616c-22.091 0-40-17.909-40-40s17.909-40 40-40h107.933l30.243 40-30.243 40z" fill="#ffe670"/><path d="m363.933 276.616c22.091 0 40 17.909 40 40s-17.909 40-40 40h-107.933v-80z" fill="#fcd32b"/><path d="m168.412 317.512 12.155 6.58-5.464 9.144-12.268-7.249.223 13.494h-10.483l.111-13.605-12.267 7.36-5.353-9.144 12.156-6.58-12.156-6.691 5.353-9.145 12.267 7.36-.111-13.605h10.483l-.223 13.605 12.268-7.36 5.464 9.145z" fill="#00347b"/><path d="m233.867 317.512 12.155 6.58-5.464 9.144-12.268-7.249.223 13.494h-10.483l.111-13.605-12.267 7.36-5.353-9.144 12.156-6.58-12.156-6.691 5.353-9.145 12.267 7.36-.111-13.605h10.483l-.223 13.605 12.268-7.36 5.464 9.145z" fill="#00347b"/><g fill="#002659"><path d="m364.778 317.512 12.155 6.58-5.464 9.144-12.268-7.249.223 13.494h-10.483l.111-13.605-12.267 7.36-5.353-9.144 12.156-6.58-12.156-6.691 5.353-9.145 12.267 7.36-.111-13.605h10.483l-.223 13.605 12.268-7.36 5.464 9.145z"/><path d="m299.322 317.512 12.155 6.58-5.464 9.144-12.268-7.249.223 13.494h-10.483l.111-13.605-12.267 7.36-5.353-9.144 12.156-6.58-12.156-6.691 5.353-9.145 12.267 7.36-.111-13.605h10.483l-.223 13.605 12.268-7.36 5.464 9.145z"/></g></g></g></g><path d="m239.152 220.583c-10.109-5.816-16.936-16.72-16.936-29.197h8.491l-28.491-28.606v28.606c0 21.107 12.253 39.399 30.014 48.158z" fill="#00347b"/></g></svg>